<svg xmlns="http://www.w3.org/2000/svg" width="200" height="200" viewBox="100 50 350 350">
    <defs>
        <linearGradient id="a" x1="0%" y1="0%" x2="100%" y2="100%">
            <stop offset="0%" style="stop-color:#ff9800;stop-opacity:1"/>
            <stop offset="100%" style="stop-color:#ff5722;stop-opacity:1"/>
        </linearGradient>
    </defs>
    <path d="M185.044 358.869h-9.961l-1.143-25.986-14.092 25.986h-6.24l-6.709-26.807-8.818 26.807h-10.225l13.389-40.605h10.928l6.416 25.781 13.916-25.781h10.635zm41.573 0h-10.811l-1.084-8.994H202.33l-4.102 8.994h-10.605l20.566-40.605h10.986zm-12.598-14.707-1.934-15.527-7.061 15.527zm53.693 14.707h-11.338l-4.043-8.467q-1.787-3.839-3.105-5.757c-1.318-1.918-1.651-2.07-2.314-2.373q-.996-.454-2.666-.454h-1.553l-2.578 17.051h-10.283l5.889-40.605h15.85q8.641 0 11.733 3.809c3.092 3.809 3.091 5.283 3.091 8.232q0 4.658-2.563 7.251c-2.563 2.593-4.097 2.798-7.163 3.208q2.344 1.347 3.618 3.164c1.274 1.817 1.86 3.096 3.032 5.654zm-12.187-28.857q0-2.344-1.714-4.087c-1.714-1.743-3.453-1.743-6.929-1.743h-1.611l-1.699 11.719h4.102q4.335 0 6.094-1.831c1.759-1.831 1.757-2.574 1.757-4.058m58.18-11.748-17.578 18.223 14.912 22.383h-11.807l-14.59-21.65-3.282 21.65h-10.342l6.064-40.605h10.401l-2.578 17.256 16.611-17.256zm32.721 0L345.4 325.5h-16.436l-1.26 8.818h14.268l-1.025 7.266h-14.385l-1.377 10.02h19.98l-1.025 7.266h-30.439l5.889-40.605zm43.527 19.892q0 6.768-2.578 11.367t-7.662 6.973c-5.084 2.373-7.583 2.373-12.582 2.373H348.41l5.83-40.605h14.941q5.301 0 9.271 1.582c3.97 1.582 4.82 2.51 6.52 4.365s2.953 3.97 3.764 6.343 1.217 4.907 1.217 7.602m-10.576.147q0-3.047-1.158-5.918c-1.158-2.871-2.192-3.54-4.262-4.878q-3.105-2.007-8.613-2.007h-1.67l-3.779 26.104h5.449q3.895 0 6.693-1.172c2.798-1.172 3.33-1.821 4.395-3.12s1.821-2.71 2.271-4.233q.674-2.286.674-4.776" fill="url(#a)"/>
    <path d="m406.922 307.149-3.703 26.35q-.914 6.486-6.33 6.486-1.16 0-2.338-.211l-.756-3.023q1.319.282 2.373.281 1.828 0 2.698-.905c.87-.905.964-1.55 1.151-2.839l3.674-26.139zm16.105.651-.475 3.357a7.66 7.66 0 0 0-4.307-1.301q-1.968 0-3.146 1.02c-1.178 1.02-1.178 1.576-1.178 2.689q0 .827.562 1.74c.562.913 1.471 1.644 3.287 3.103s3.015 2.739 3.595 3.841.87 2.203.87 3.305q0 2.636-1.986 4.553c-1.986 1.917-3.088 1.916-5.291 1.916q-2.936 0-5.941-1.758l.51-3.604q3.357 2.338 5.766 2.338 1.3 0 2.47-.852 1.169-.852 1.169-2.312 0-.93-.59-1.933-.591-1.001-3.324-3.232-2.736-2.23-3.568-3.874-.832-1.646-.832-3.263 0-2.849 2.355-4.775 2.355-1.925 5.555-1.926 2.232.001 4.499.968" fill="url(#a)"/>
    <path d="M357 200v-92c0-8.284-6.716-15-15-15H172c-8.284 0-15 6.716-15 15v92zm-200 5v73c0 8.284 6.716 15 15 15h170c8.284 0 15-6.716 15-15v-73z" fill="url(#a)"/>
    <path d="M208.737 180.15v-33.125l16.987 21.234 16.987-21.234v33.125h16.987v-57.756h-16.987l-16.987 21.234-16.987-21.234H191.75v57.756zm113.813-28.878h-16.987v-28.878h-16.986v28.878H271.59L297.069 181zM217 241.154a3.846 3.846 0 0 1-3.845 3.846h-5.31a3.845 3.845 0 0 1-3.845-3.846v-.309a3.846 3.846 0 0 1 3.845-3.846h5.31a3.845 3.845 0 0 1 3.845 3.846zm-9.141 15.346c0 1.933-1.1 3.5-2.457 3.5h-12.046c-1.357 0-2.457-1.567-2.457-3.5s1.1-3.5 2.457-3.5h12.046c1.357 0 2.457 1.567 2.457 3.5m120.185-18.479a23.3 23.3 0 0 0-4.907-8.269q-3.323-3.627-8.498-5.689T302.553 222h-19.477l-7.6 52.932h24.403q9.776 0 16.402-3.094 6.625-3.093 9.986-9.09 3.36-5.995 3.361-14.817 0-5.27-1.584-9.91m-13.08 16.326q-.88 2.98-2.96 5.519-2.082 2.54-5.729 4.067c-3.647 1.527-5.34 1.528-8.727 1.528h-7.103l4.927-34.027h2.176q7.18 0 11.229 2.616 4.047 2.616 5.557 6.358a20.5 20.5 0 0 1 1.508 7.713q0 3.247-.878 6.226m-68.816-13.304 1.373-9.61h21.424l1.336-9.434h-36.237c-2.125 0-3.846 1.877-3.846 4s1.721 4 3.846 4h3.889a3.491 3.491 0 0 1 0 6.982h-4.806l-.001.019h-8.983c-1.299 0-2.353 1.786-2.353 3.988s1.053 3.989 2.353 3.989h7.826l-.003.023h3.189a3.845 3.845 0 0 1 3.845 3.846v.309a3.846 3.846 0 0 1-3.845 3.846H216.2a3.5 3.5 0 1 0 0 7h13.954a3.845 3.845 0 0 1 3.845 3.846v.309a3.846 3.846 0 0 1-3.845 3.846h-7.109c-2.125 0-3.846 1.377-3.846 3.5s1.721 3.5 3.846 3.5h25.636q.41-.001.795-.068h17.828l1.336-9.471h-26.045l1.795-13.062h18.751l1.336-9.471h-18.598l.029-.205a6.3 6.3 0 0 0 .24-1.682" fill="#fff"/>
</svg>
